# Blender v2.76 (sub 0) OBJ File: ''
# www.blender.org
mtllib mosc.mtl
o Circle_Circle.001
v 0.000000 0.000000 -6.000000
v -1.170542 0.000000 -5.884711
v -2.296101 0.000000 -5.543277
v -3.333421 0.000000 -4.988818
v -4.242640 0.000000 -4.242640
v -4.988818 0.000000 -3.333421
v -5.543277 0.000000 -2.296101
v -5.884711 0.000000 -1.170542
v -6.000000 0.000000 -0.000000
v -5.884712 0.000000 1.170541
v -5.543277 0.000000 2.296100
v -4.988818 0.000000 3.333421
v -4.242640 0.000000 4.242640
v -3.333421 0.000000 4.988818
v -2.296100 0.000000 5.543278
v -1.170541 0.000000 5.884712
v 0.000002 0.000000 6.000000
v 1.170544 0.000000 5.884711
v 2.296103 0.000000 5.543276
v 3.333424 0.000000 4.988816
v 4.242643 0.000000 4.242638
v 4.988820 0.000000 3.333418
v 5.543279 0.000000 2.296096
v 5.884713 0.000000 1.170537
v 6.000000 0.000000 -0.000006
v 5.884710 0.000000 -1.170548
v 5.543274 0.000000 -2.296107
v 4.988813 0.000000 -3.333427
v 4.242635 0.000000 -4.242646
v 3.333415 0.000000 -4.988822
v 2.296093 0.000000 -5.543281
v 1.170533 0.000000 -5.884713
v 0.000000 5.010337 -6.000000
v -1.170542 5.010337 -5.884711
v -2.296101 5.010337 -5.543277
v -3.333421 5.010337 -4.988818
v -4.242640 5.010337 -4.242640
v -4.988818 5.010337 -3.333421
v -5.543277 5.010337 -2.296101
v -5.884711 5.010337 -1.170542
v -6.000000 5.010337 -0.000000
v -5.884712 5.010337 1.170541
v -5.543277 5.010337 2.296100
v -4.988818 5.010337 3.333421
v -4.242640 5.010337 4.242640
v -3.333421 5.010337 4.988818
v -2.296100 5.010337 5.543278
v -1.170541 5.010337 5.884712
v 0.000002 5.010337 6.000000
v 1.170544 5.010337 5.884711
v 2.296103 5.010337 5.543276
v 3.333424 5.010337 4.988816
v 4.242643 5.010337 4.242638
v 4.988820 5.010337 3.333418
v 5.543279 5.010337 2.296096
v 5.884713 5.010337 1.170537
v 6.000000 5.010337 -0.000006
v 5.884710 5.010337 -1.170548
v 5.543274 5.010337 -2.296107
v 4.988813 5.010337 -3.333427
v 4.242635 5.010337 -4.242646
v 3.333415 5.010337 -4.988822
v 2.296093 5.010337 -5.543281
v 1.170533 5.010337 -5.884713
vt 0.000000 0.000000
vt 1.000000 0.000000
vt 1.000000 1.000000
vt 0.000000 1.000000
vn -0.995200 0.000000 -0.098000
vn 0.881900 0.000000 -0.471400
vn -0.995200 0.000000 0.098000
vn 0.773000 0.000000 -0.634400
vn -0.956900 0.000000 0.290300
vn 0.634400 0.000000 -0.773000
vn -0.881900 0.000000 0.471400
vn 0.471400 0.000000 -0.881900
vn 0.098000 0.000000 0.995200
vn -0.773000 0.000000 0.634400
vn 0.290300 0.000000 -0.956900
vn 0.290300 0.000000 0.956900
vn -0.634400 0.000000 0.773000
vn 0.098000 0.000000 -0.995200
vn 0.471400 0.000000 0.881900
vn -0.471400 0.000000 0.881900
vn -0.098000 0.000000 -0.995200
vn 0.634400 0.000000 0.773000
vn -0.290300 0.000000 0.956900
vn -0.290300 0.000000 -0.956900
vn 0.773000 0.000000 0.634400
vn -0.098000 0.000000 0.995200
vn -0.471400 0.000000 -0.881900
vn 0.881900 0.000000 0.471400
vn -0.634400 0.000000 -0.773000
vn 0.956900 0.000000 0.290300
vn -0.773000 0.000000 -0.634400
vn 0.995200 0.000000 0.098000
vn -0.881900 0.000000 -0.471400
vn 0.995200 0.000000 -0.098000
vn -0.956900 0.000000 -0.290300
vn 0.956900 0.000000 -0.290300
usemtl Material.003
s off
f 25/1/1 24/2/1 56/3/1 57/4/1
f 12/1/2 11/2/2 43/3/2 44/4/2
f 26/1/3 25/2/3 57/3/3 58/4/3
f 13/1/4 12/2/4 44/3/4 45/4/4
f 27/1/5 26/2/5 58/3/5 59/4/5
f 14/1/6 13/2/6 45/3/6 46/4/6
f 28/1/7 27/2/7 59/3/7 60/4/7
f 15/1/8 14/2/8 46/3/8 47/4/8
f 2/1/9 1/2/9 33/3/9 34/4/9
f 29/1/10 28/2/10 60/3/10 61/4/10
f 16/1/11 15/2/11 47/3/11 48/4/11
f 3/1/12 2/2/12 34/3/12 35/4/12
f 30/1/13 29/2/13 61/3/13 62/4/13
f 17/1/14 16/2/14 48/3/14 49/4/14
f 4/1/15 3/2/15 35/3/15 36/4/15
f 31/1/16 30/2/16 62/3/16 63/4/16
f 18/1/17 17/2/17 49/3/17 50/4/17
f 5/1/18 4/2/18 36/3/18 37/4/18
f 32/1/19 31/2/19 63/3/19 64/4/19
f 19/1/20 18/2/20 50/3/20 51/4/20
f 6/1/21 5/2/21 37/3/21 38/4/21
f 1/1/22 32/2/22 64/3/22 33/4/22
f 20/1/23 19/2/23 51/3/23 52/4/23
f 7/1/24 6/2/24 38/3/24 39/4/24
f 21/1/25 20/2/25 52/3/25 53/4/25
f 8/1/26 7/2/26 39/3/26 40/4/26
f 22/1/27 21/2/27 53/3/27 54/4/27
f 9/1/28 8/2/28 40/3/28 41/4/28
f 23/1/29 22/2/29 54/3/29 55/4/29
f 10/1/30 9/2/30 41/3/30 42/4/30
f 24/1/31 23/2/31 55/3/31 56/4/31
f 11/1/32 10/2/32 42/3/32 43/4/32
